<?xml version="1.0" encoding="UTF-8" standalone="no"?>
<svg
   viewBox="0 0 52.264809 52.264809"
   version="1.1"
   x="0px"
   y="0px"
   id="svg189"
   sodipodi:docname="css.svg"
   inkscape:version="1.2.2 (732a01da63, 2022-12-09)"
   width="52.264809"
   height="52.264809"
   xmlns:inkscape="http://www.inkscape.org/namespaces/inkscape"
   xmlns:sodipodi="http://sodipodi.sourceforge.net/DTD/sodipodi-0.dtd"
   xmlns="http://www.w3.org/2000/svg"
   xmlns:svg="http://www.w3.org/2000/svg"
   xmlns:rdf="http://www.w3.org/1999/02/22-rdf-syntax-ns#"
   xmlns:cc="http://creativecommons.org/ns#"
   xmlns:dc="http://purl.org/dc/elements/1.1/">
  <defs
     id="defs193" />
  <sodipodi:namedview
     id="namedview191"
     pagecolor="#ffffff"
     bordercolor="#666666"
     borderopacity="1.0"
     inkscape:pageshadow="2"
     inkscape:pageopacity="0.0"
     inkscape:pagecheckerboard="0"
     showgrid="false"
     inkscape:current-layer="svg189"
     fit-margin-top="0"
     fit-margin-left="0"
     fit-margin-right="0"
     fit-margin-bottom="0"
     inkscape:showpageshadow="2"
     inkscape:deskcolor="#d1d1d1" />
  <title
     id="title155">32 -CSS Code- (Outline)</title>
  <desc
     id="desc157">Created with Sketch.</desc>
  <g
     stroke="none"
     stroke-width="1.17671"
     fill="none"
     fill-rule="evenodd"
     id="g183"
     transform="matrix(0.84983202,0,0,0.84983202,0.63744368,0.63744377)"
     style="fill:#3485fd">
    <g
       transform="translate(-240,-690)"
       fill="#000000"
       id="g181"
       style="stroke-width:1.59759;fill:#3485fd">
      <g
         transform="translate(240,690)"
         id="g179"
         style="stroke-width:1.17671;fill:#3485fd">
        <path
           d="m 2,10 v 47 c 0,0.551 0.449,1 1,1 h 54 c 0.551,0 1,-0.449 1,-1 V 10 Z M 57,60 H 3 C 1.346,60 0,58.654 0,57 V 9 C 0,8.448 0.448,8 1,8 h 58 c 0.552,0 1,0.448 1,1 v 48 c 0,1.654 -1.346,3 -3,3 z"
           id="path159"
           style="stroke-width:1.17671;fill:#3485fd" />
        <path
           d="M 2,8 H 58 V 3 C 58,2.449 57.551,2 57,2 H 3 C 2.449,2 2,2.449 2,3 Z m 57,2 H 1 C 0.448,10 0,9.552 0,9 V 3 C 0,1.346 1.346,0 3,0 h 54 c 1.654,0 3,1.346 3,3 v 6 c 0,0.552 -0.448,1 -1,1 z"
           id="path161"
           style="stroke-width:1.17671;fill:#3485fd" />
        <path
           d="M 6,5 C 6,5.552 5.552,6 5,6 4.448,6 4,5.552 4,5 4,4.448 4.448,4 5,4 5.552,4 6,4.448 6,5"
           id="path163"
           style="stroke-width:1.17671;fill:#3485fd" />
        <path
           d="M 10,5 C 10,5.552 9.552,6 9,6 8.448,6 8,5.552 8,5 8,4.448 8.448,4 9,4 c 0.552,0 1,0.448 1,1"
           id="path165"
           style="stroke-width:1.17671;fill:#3485fd" />
        <path
           d="m 14,5 c 0,0.552 -0.448,1 -1,1 -0.552,0 -1,-0.448 -1,-1 0,-0.552 0.448,-1 1,-1 0.552,0 1,0.448 1,1"
           id="path167"
           style="stroke-width:1.17671;fill:#3485fd" />
        <path
           d="M 10.001,43 C 9.689,43 9.381,42.854 9.186,42.581 l -5,-7 c -0.248,-0.348 -0.248,-0.814 0,-1.162 l 5,-7 c 0.321,-0.45 0.946,-0.554 1.395,-0.233 0.45,0.321 0.554,0.946 0.233,1.395 L 6.229,35 l 4.585,6.419 c 0.321,0.449 0.217,1.074 -0.233,1.395 C 10.405,42.939 10.202,43 10.001,43"
           id="path169"
           style="stroke-width:1.17671;fill:#3485fd" />
        <path
           d="m 49.999,43 c -0.201,0 -0.404,-0.061 -0.58,-0.186 -0.45,-0.321 -0.554,-0.946 -0.233,-1.395 L 53.771,35 49.186,28.581 c -0.321,-0.449 -0.217,-1.074 0.233,-1.395 0.448,-0.321 1.073,-0.217 1.395,0.233 l 5,7 c 0.248,0.348 0.248,0.814 0,1.162 l -5,7 C 50.619,42.854 50.311,43 49.999,43"
           id="path171"
           style="stroke-width:1.17671;fill:#3485fd" />
        <path
           d="m 20,42 c -3.86,0 -7,-3.14 -7,-7 0,-3.86 3.14,-7 7,-7 1.725,0 3.381,0.633 4.666,1.782 0.411,0.368 0.446,1 0.078,1.411 -0.367,0.412 -1,0.448 -1.411,0.079 C 22.416,30.452 21.232,30 20,30 c -2.757,0 -5,2.243 -5,5 0,2.757 2.243,5 5,5 1.232,0 2.417,-0.452 3.333,-1.273 0.413,-0.369 1.045,-0.333 1.413,0.078 0.368,0.412 0.333,1.044 -0.079,1.412 C 23.383,41.367 21.726,42 20,42"
           id="path173"
           style="stroke-width:1.17671;fill:#3485fd" />
        <path
           d="m 32,42 c -2.206,0 -4,-1.794 -4,-4 0,-0.552 0.448,-1 1,-1 0.552,0 1,0.448 1,1 0,1.103 0.897,2 2,2 1.103,0 2,-0.897 2,-2 0,-1.103 -0.897,-2 -2,-2 -2.206,0 -4,-1.794 -4,-4 0,-2.206 1.794,-4 4,-4 2.206,0 4,1.794 4,4 0,0.552 -0.448,1 -1,1 -0.552,0 -1,-0.448 -1,-1 0,-1.103 -0.897,-2 -2,-2 -1.103,0 -2,0.897 -2,2 0,1.103 0.897,2 2,2 2.206,0 4,1.794 4,4 0,2.206 -1.794,4 -4,4"
           id="path175"
           style="stroke-width:1.17671;fill:#3485fd" />
        <path
           d="m 43,42 c -2.206,0 -4,-1.794 -4,-4 0,-0.552 0.448,-1 1,-1 0.552,0 1,0.448 1,1 0,1.103 0.897,2 2,2 1.103,0 2,-0.897 2,-2 0,-1.103 -0.897,-2 -2,-2 -2.206,0 -4,-1.794 -4,-4 0,-2.206 1.794,-4 4,-4 2.206,0 4,1.794 4,4 0,0.552 -0.448,1 -1,1 -0.552,0 -1,-0.448 -1,-1 0,-1.103 -0.897,-2 -2,-2 -1.103,0 -2,0.897 -2,2 0,1.103 0.897,2 2,2 2.206,0 4,1.794 4,4 0,2.206 -1.794,4 -4,4"
           id="path177"
           style="stroke-width:1.17671;fill:#3485fd" />
      </g>
    </g>
  </g>
  <metadata
     id="metadata383">
    <rdf:RDF>
      <cc:Work
         rdf:about="">
        <dc:title>32 -CSS Code- (Outline)</dc:title>
      </cc:Work>
    </rdf:RDF>
  </metadata>
</svg>
