<?xml version="1.0" encoding="UTF-8" standalone="no"?>
<svg
   enable-background="new 0 0 1858 2499.6"
   viewBox="0 0 52.264809 52.264807"
   version="1.1"
   id="svg132"
   sodipodi:docname="draw-io.svg"
   inkscape:version="1.2.2 (732a01da63, 2022-12-09)"
   width="52.264809"
   height="52.264809"
   xmlns:inkscape="http://www.inkscape.org/namespaces/inkscape"
   xmlns:sodipodi="http://sodipodi.sourceforge.net/DTD/sodipodi-0.dtd"
   xmlns="http://www.w3.org/2000/svg"
   xmlns:svg="http://www.w3.org/2000/svg">
  <defs
     id="defs136" />
  <sodipodi:namedview
     id="namedview134"
     pagecolor="#ffffff"
     bordercolor="#666666"
     borderopacity="1.0"
     inkscape:pageshadow="2"
     inkscape:pageopacity="0.0"
     inkscape:pagecheckerboard="0"
     showgrid="false"
     inkscape:current-layer="svg132"
     fit-margin-top="0"
     fit-margin-left="0"
     fit-margin-right="0"
     fit-margin-bottom="0"
     inkscape:showpageshadow="2"
     inkscape:deskcolor="#d1d1d1" />
  <rect
     style="fill:#ffffff;fill-rule:evenodd;stroke:none;stroke-width:1"
     id="rect230"
     width="52.264809"
     height="52.264809"
     x="0"
     y="0" />
  <path
     d="m 42.648479,31.199893 h -5.396197 l -5.71362,-9.710395 c 1.269694,-0.253938 2.221964,-1.396662 2.221964,-2.72984 v -7.3311 c 0,-1.5539939 -1.236571,-2.793325 -2.793326,-2.793325 h -9.51718 c -1.553994,0 -2.793325,1.2365709 -2.793325,2.793325 v 7.3311 c 0,1.36354 0.95227,2.475902 2.188841,2.72984 l -5.71362,9.743517 H 9.738579 c -1.5539943,0 -2.7933254,1.236571 -2.7933254,2.793325 v 7.3311 c 0,1.553994 1.2365709,2.793325 2.7933254,2.793325 h 9.51994 c 1.553994,0 2.793326,-1.236571 2.793326,-2.793325 v -7.3311 c 0,-1.553994 -1.236571,-2.793325 -2.793326,-2.793325 h -0.919147 l 5.650135,-9.64691 h 4.410804 l 5.680498,9.64691 h -0.95227 c -1.553994,0 -2.793325,1.236571 -2.793325,2.793325 v 7.3311 c 0,1.553994 1.236571,2.793325 2.793325,2.793325 h 9.51994 c 1.553995,0 2.793326,-1.236571 2.793326,-2.793325 v -7.3311 c 0,-1.556754 -1.236571,-2.826447 -2.793326,-2.826447 z"
     fill="#ffffff"
     id="path126"
     style="stroke:#fd933a;stroke-width:1.5;stroke-miterlimit:4;stroke-dasharray:none;stroke-opacity:1" />
  <g
     data-name="Group"
     id="g800"
     transform="matrix(0.72966664,0,0,0.72966664,-10.350928,-10.350928)"
     style="stroke-width:1.37049;fill:#fd933a">
    <path
       data-name="Compound Path"
       d="m 84.8,27.2 a 12,12 0 0 0 -12,-12 H 27.2 a 12,12 0 0 0 -12,12 v 45.6 a 12,12 0 0 0 12,12 h 45.6 a 12,12 0 0 0 12,-12 z m -4,45.7 a 8,8 0 0 1 -8,8 H 27.2 a 8,8 0 0 1 -8,-8 V 27.2 a 8,8 0 0 1 8,-8 h 45.6 a 8,8 0 0 1 8,8 z"
       id="path794"
       style="stroke-width:1.37049;fill:#fd933a" />
  </g>
</svg>
