<?xml version="1.0" encoding="UTF-8" standalone="no"?>
<svg
   enable-background="new 0 0 1858 2499.6"
   viewBox="0 0 52.264809 52.264807"
   version="1.1"
   id="svg132"
   sodipodi:docname="draw-io.svg"
   inkscape:version="1.1 (c68e22c387, 2021-05-23)"
   width="52.264809"
   height="52.264809"
   xmlns:inkscape="http://www.inkscape.org/namespaces/inkscape"
   xmlns:sodipodi="http://sodipodi.sourceforge.net/DTD/sodipodi-0.dtd"
   xmlns="http://www.w3.org/2000/svg"
   xmlns:svg="http://www.w3.org/2000/svg">
  <defs
     id="defs136" />
  <sodipodi:namedview
     id="namedview134"
     pagecolor="#ffffff"
     bordercolor="#666666"
     borderopacity="1.0"
     inkscape:pageshadow="2"
     inkscape:pageopacity="0.0"
     inkscape:pagecheckerboard="0"
     showgrid="false"
     inkscape:current-layer="svg132"
     fit-margin-top="0"
     fit-margin-left="0"
     fit-margin-right="0"
     fit-margin-bottom="0" />
  <rect
     style="fill:#ffffff;fill-rule:evenodd;stroke:none;stroke-width:1"
     id="rect230"
     width="52.264809"
     height="52.264809"
     x="0"
     y="0" />
  <g
     id="g1628"
     transform="matrix(0.02760203,0,0,0.02760203,0.53606219,0.54346496)"
     style="stroke-width:36.2293">
    <path
       d="m 1858,1778.7 c 0,44.8 -36.8,79.3 -79.3,79.3 H 79.3 C 34.5,1858 0,1821.2 0,1778.7 V 79.3 C 0,34.5 36.8,0 79.3,0 h 1699.3 c 44.8,0 79.3,36.8 79.3,79.3 v 1699.4 z"
       fill="#f08705"
       id="path122"
       style="fill:#000000;fill-opacity:1;stroke-width:36.2293" />
    <path
       d="m 1858,1778.7 c 0,44.8 -36.8,79.3 -79.3,79.3 H 635.8 l -370.2,-376 230,-376 683,-848.5 677.2,697.9 z"
       fill="#df6c0c"
       id="path124"
       style="fill:#1b1b1b;fill-opacity:1;stroke-width:36.2293" />
    <path
       d="m 1525.7,1038.2 h -195.5 l -207,-351.8 c 46,-9.2 80.5,-50.6 80.5,-98.9 V 321.9 c 0,-56.3 -44.8,-101.2 -101.2,-101.2 H 757.7 c -56.3,0 -101.2,44.8 -101.2,101.2 v 265.6 c 0,49.4 34.5,89.7 79.3,98.9 l -207,353 H 333.4 c -56.3,0 -101.2,44.8 -101.2,101.2 v 265.6 c 0,56.3 44.8,101.2 101.2,101.2 h 344.9 c 56.3,0 101.2,-44.8 101.2,-101.2 v -265.6 c 0,-56.3 -44.8,-101.2 -101.2,-101.2 H 645 L 849.7,689.9 h 159.8 l 205.8,349.5 h -34.5 c -56.3,0 -101.2,44.8 -101.2,101.2 v 265.6 c 0,56.3 44.8,101.2 101.2,101.2 h 344.9 c 56.3,0 101.2,-44.8 101.2,-101.2 v -265.6 c 0,-56.4 -44.8,-102.4 -101.2,-102.4 z"
       fill="#ffffff"
       id="path126"
       style="stroke-width:443.249" />
  </g>
</svg>
