<?xml version="1.0" encoding="UTF-8" standalone="no"?>
<svg
   viewBox="0 0 52.264809 52.264809"
   version="1.1"
   x="0px"
   y="0px"
   id="svg495"
   sodipodi:docname="html.svg"
   inkscape:version="1.2.2 (732a01da63, 2022-12-09)"
   width="52.264809"
   height="52.264809"
   xmlns:inkscape="http://www.inkscape.org/namespaces/inkscape"
   xmlns:sodipodi="http://sodipodi.sourceforge.net/DTD/sodipodi-0.dtd"
   xmlns="http://www.w3.org/2000/svg"
   xmlns:svg="http://www.w3.org/2000/svg"
   xmlns:rdf="http://www.w3.org/1999/02/22-rdf-syntax-ns#"
   xmlns:cc="http://creativecommons.org/ns#"
   xmlns:dc="http://purl.org/dc/elements/1.1/">
  <defs
     id="defs499" />
  <sodipodi:namedview
     id="namedview497"
     pagecolor="#ffffff"
     bordercolor="#666666"
     borderopacity="1.0"
     inkscape:pageshadow="2"
     inkscape:pageopacity="0.0"
     inkscape:pagecheckerboard="0"
     showgrid="false"
     inkscape:current-layer="svg495"
     fit-margin-top="0"
     fit-margin-left="0"
     fit-margin-right="0"
     fit-margin-bottom="0"
     inkscape:showpageshadow="2"
     inkscape:deskcolor="#d1d1d1" />
  <title
     id="title453">31 -HTML Code- (Outline)</title>
  <desc
     id="desc455">Created with Sketch.</desc>
  <g
     stroke="none"
     stroke-width="1.17784"
     fill="none"
     fill-rule="evenodd"
     id="g489"
     transform="matrix(0.84901277,0,0,0.84901277,0.66202047,0.66202115)"
     style="fill:#4ab563">
    <g
       transform="translate(-120,-690)"
       fill="#000000"
       id="g487"
       style="stroke-width:1.65977;fill:#4ab563">
      <g
         transform="translate(120,690)"
         id="g485"
         style="stroke-width:1.17784;fill:#4ab563">
        <path
           d="m 2,10 v 47 c 0,0.551 0.449,1 1,1 h 54 c 0.551,0 1,-0.449 1,-1 V 10 Z M 57,60 H 3 C 1.346,60 0,58.654 0,57 V 9 C 0,8.448 0.448,8 1,8 h 58 c 0.552,0 1,0.448 1,1 v 48 c 0,1.654 -1.346,3 -3,3 z"
           id="path457"
           style="stroke-width:1.17784;fill:#4ab563" />
        <path
           d="M 2,8 H 58 V 3 C 58,2.449 57.551,2 57,2 H 3 C 2.449,2 2,2.449 2,3 Z m 57,2 H 1 C 0.448,10 0,9.552 0,9 V 3 C 0,1.346 1.346,0 3,0 h 54 c 1.654,0 3,1.346 3,3 v 6 c 0,0.552 -0.448,1 -1,1 z"
           id="path459"
           style="stroke-width:1.17784;fill:#4ab563" />
        <path
           d="M 6,5 C 6,5.552 5.552,6 5,6 4.448,6 4,5.552 4,5 4,4.448 4.448,4 5,4 5.552,4 6,4.448 6,5"
           id="path461"
           style="stroke-width:1.17784;fill:#4ab563" />
        <path
           d="M 10,5 C 10,5.552 9.552,6 9,6 8.448,6 8,5.552 8,5 8,4.448 8.448,4 9,4 c 0.552,0 1,0.448 1,1"
           id="path463"
           style="stroke-width:1.17784;fill:#4ab563" />
        <path
           d="m 14,5 c 0,0.552 -0.448,1 -1,1 -0.552,0 -1,-0.448 -1,-1 0,-0.552 0.448,-1 1,-1 0.552,0 1,0.448 1,1"
           id="path465"
           style="stroke-width:1.17784;fill:#4ab563" />
        <path
           d="M 10.001,43 C 9.689,43 9.381,42.854 9.186,42.581 l -5,-7 c -0.248,-0.348 -0.248,-0.814 0,-1.162 l 5,-7 c 0.321,-0.45 0.947,-0.554 1.395,-0.233 0.45,0.321 0.554,0.946 0.233,1.395 L 6.229,35 l 4.585,6.419 c 0.321,0.449 0.217,1.074 -0.233,1.395 C 10.405,42.939 10.202,43 10.001,43"
           id="path467"
           style="stroke-width:1.17784;fill:#4ab563" />
        <path
           d="m 49.999,43 c -0.201,0 -0.404,-0.061 -0.58,-0.186 -0.45,-0.321 -0.554,-0.946 -0.233,-1.395 L 53.771,35 49.186,28.581 c -0.321,-0.449 -0.217,-1.074 0.233,-1.395 0.448,-0.321 1.074,-0.217 1.395,0.233 l 5,7 c 0.248,0.348 0.248,0.814 0,1.162 l -5,7 C 50.619,42.854 50.311,43 49.999,43"
           id="path469"
           style="stroke-width:1.17784;fill:#4ab563" />
        <path
           d="m 13,40 c -0.552,0 -1,-0.448 -1,-1 v -8 c 0,-0.552 0.448,-1 1,-1 0.552,0 1,0.448 1,1 v 8 c 0,0.552 -0.448,1 -1,1"
           id="path471"
           style="stroke-width:1.17784;fill:#4ab563" />
        <path
           d="m 19,40 c -0.552,0 -1,-0.448 -1,-1 v -8 c 0,-0.552 0.448,-1 1,-1 0.552,0 1,0.448 1,1 v 8 c 0,0.552 -0.448,1 -1,1"
           id="path473"
           style="stroke-width:1.17784;fill:#4ab563" />
        <path
           d="m 19,36 h -6 c -0.552,0 -1,-0.448 -1,-1 0,-0.552 0.448,-1 1,-1 h 6 c 0.552,0 1,0.448 1,1 0,0.552 -0.448,1 -1,1"
           id="path475"
           style="stroke-width:1.17784;fill:#4ab563" />
        <path
           d="m 29,32 h -6 c -0.552,0 -1,-0.448 -1,-1 0,-0.552 0.448,-1 1,-1 h 6 c 0.552,0 1,0.448 1,1 0,0.552 -0.448,1 -1,1"
           id="path477"
           style="stroke-width:1.17784;fill:#4ab563" />
        <path
           d="m 26,40 c -0.552,0 -1,-0.448 -1,-1 v -8 c 0,-0.552 0.448,-1 1,-1 0.552,0 1,0.448 1,1 v 8 c 0,0.552 -0.448,1 -1,1"
           id="path479"
           style="stroke-width:1.17784;fill:#4ab563" />
        <path
           d="m 39,40 c -0.552,0 -1,-0.448 -1,-1 v -5 l -1.2,1.6 c -0.377,0.504 -1.223,0.504 -1.6,0 L 34,34 v 5 c 0,0.552 -0.448,1 -1,1 -0.552,0 -1,-0.448 -1,-1 v -8 c 0,-0.431 0.275,-0.813 0.684,-0.949 0.408,-0.136 0.858,0.005 1.116,0.349 L 36,33.333 38.2,30.4 c 0.258,-0.344 0.709,-0.484 1.116,-0.349 C 39.725,30.187 40,30.569 40,31 v 8 c 0,0.552 -0.448,1 -1,1"
           id="path481"
           style="stroke-width:1.17784;fill:#4ab563" />
        <path
           d="m 47,40 h -4 c -0.552,0 -1,-0.448 -1,-1 v -8 c 0,-0.552 0.448,-1 1,-1 0.552,0 1,0.448 1,1 v 7 h 3 c 0.552,0 1,0.448 1,1 0,0.552 -0.448,1 -1,1"
           id="path483"
           style="stroke-width:1.17784;fill:#4ab563" />
      </g>
    </g>
  </g>
  <metadata
     id="metadata193">
    <rdf:RDF>
      <cc:Work
         rdf:about="">
        <dc:title>31 -HTML Code- (Outline)</dc:title>
      </cc:Work>
    </rdf:RDF>
  </metadata>
</svg>
