<?xml version="1.0" encoding="UTF-8" standalone="no"?>
<svg
   version="1.1"
   x="0px"
   y="0px"
   viewBox="0 0 52.264809 52.264809"
   enable-background="new 0 0 60 60"
   xml:space="preserve"
   id="svg42"
   sodipodi:docname="keypirinha.svg"
   width="52.264809"
   height="52.264809"
   inkscape:version="1.2.2 (732a01da63, 2022-12-09)"
   xmlns:inkscape="http://www.inkscape.org/namespaces/inkscape"
   xmlns:sodipodi="http://sodipodi.sourceforge.net/DTD/sodipodi-0.dtd"
   xmlns="http://www.w3.org/2000/svg"
   xmlns:svg="http://www.w3.org/2000/svg"><defs
     id="defs46" /><sodipodi:namedview
     id="namedview44"
     pagecolor="#ffffff"
     bordercolor="#666666"
     borderopacity="1.0"
     inkscape:pageshadow="2"
     inkscape:pageopacity="0.0"
     inkscape:pagecheckerboard="0"
     showgrid="false"
     fit-margin-top="0"
     fit-margin-left="0"
     fit-margin-right="0"
     fit-margin-bottom="0"
     inkscape:current-layer="svg42"
     inkscape:showpageshadow="2"
     inkscape:deskcolor="#d1d1d1" /><rect
     style="fill:#ffffff;fill-rule:evenodd;stroke:none;stroke-width:1"
     id="rect230"
     width="52.264809"
     height="52.264809"
     x="0"
     y="0" /><path
     style="fill:none;fill-rule:evenodd;stroke:#17a2b8;stroke-width:1.5;stroke-miterlimit:4;stroke-dasharray:none;stroke-opacity:1"
     d="m 7.95474,11.738416 v 16.73656 16.736559 l 3.229153,-0.09484 3.229153,-0.09328 0.09328,-3.972309 0.09328,-3.97231 1.215788,-1.243776 1.215796,-1.24533 h 0.233201 0.233209 l 2.89645,5.30004 2.896441,5.298485 h 3.426597 3.426605 v -0.129041 -0.130597 l -4.312794,-7.537282 -4.468576,-7.633092 c 1.491606,-1.588274 3.070619,-3.234194 4.558748,-4.87152 l 3.560312,-3.787298 V 20.889497 20.67961 H 25.68632 21.889695 l -3.572745,4.123117 -3.572746,4.121563 -0.08862,-8.592938 -0.08862,-8.592936 h -3.306885 z"
     id="path2374"
     sodipodi:nodetypes="ccccccccccccccccccccccccccccccc" /><path
     data-name="Compound Path"
     d="m 51.524803,9.4960045 a 8.7559997,8.7559997 0 0 0 -8.756,-8.75599937 H 9.4960053 A 8.7559997,8.7559997 0 0 0 0.74000533,9.4960045 V 42.768804 a 8.7559997,8.7559997 0 0 0 8.75599997,8.756 H 42.768803 a 8.7559997,8.7559997 0 0 0 8.756,-8.756 z M 48.606137,42.841771 a 5.8373331,5.8373331 0 0 1 -5.837334,5.837333 H 9.4960053 A 5.8373331,5.8373331 0 0 1 3.6586713,42.841771 V 9.4960045 a 5.8373331,5.8373331 0 0 1 5.837334,-5.837333 H 42.768803 a 5.8373331,5.8373331 0 0 1 5.837334,5.837333 z"
     id="path794"
     style="stroke-width:1;fill:#17a2b8" /></svg>
