<?xml version="1.0" encoding="UTF-8" standalone="no"?>
<svg
   version="1.1"
   x="0px"
   y="0px"
   viewBox="0 0 52.264809 52.264809"
   enable-background="new 0 0 60 60"
   xml:space="preserve"
   id="svg42"
   sodipodi:docname="badge.svg"
   width="52.264809"
   height="52.264809"
   inkscape:version="1.1 (c68e22c387, 2021-05-23)"
   xmlns:inkscape="http://www.inkscape.org/namespaces/inkscape"
   xmlns:sodipodi="http://sodipodi.sourceforge.net/DTD/sodipodi-0.dtd"
   xmlns="http://www.w3.org/2000/svg"
   xmlns:svg="http://www.w3.org/2000/svg"><defs
     id="defs46" /><sodipodi:namedview
     id="namedview44"
     pagecolor="#ffffff"
     bordercolor="#666666"
     borderopacity="1.0"
     inkscape:pageshadow="2"
     inkscape:pageopacity="0.0"
     inkscape:pagecheckerboard="0"
     showgrid="false"
     fit-margin-top="0"
     fit-margin-left="0"
     fit-margin-right="0"
     fit-margin-bottom="0"
     inkscape:current-layer="svg42" /><rect
     style="fill:#ffffff;fill-rule:evenodd;stroke:none;stroke-width:1"
     id="rect230"
     width="52.264809"
     height="52.264809"
     x="0"
     y="0" /><path
     style="fill:#000000;stroke-width:0.999996"
     d="M 0.54514022,48.733977 V 26.342211 3.9504449 C 0.54445824,1.4214491 1.4895097,0.5708752 3.8323285,0.58277897 l 22.1760665,0.00613 22.176074,0.00613 c 2.403166,-0.0376692 3.535575,1.33844263 3.535245,3.94034063 l -0.0019,21.2192614 -0.0019,21.219262 c -0.0068,2.938178 -0.415601,4.525443 -3.115866,4.576705 l -21.843356,0.06574 -21.8433583,0.06574 C 1.7186971,51.68986 0.53668443,50.99552 0.54514022,48.733977 Z m 13.64017078,-6.749709 0.118092,-4.98964 1.526587,-1.563366 1.526587,-1.563366 h 0.29316 0.293159 l 3.639215,6.657023 3.639213,6.657024 h 4.304466 4.304467 v -0.163006 -0.163006 l -5.418485,-9.468359 -5.418483,-9.46836 0.529732,-0.741359 0.529732,-0.741358 4.472688,-4.758516 4.472687,-4.758515 v -0.263128 -0.263127 h -4.768779 -4.76878 L 18.971926,21.572086 14.483282,26.750963 14.372358,15.955222 14.261434,5.1594827 H 10.107703 5.9539718 V 26.185778 47.212074 l 4.0566232,-0.119082 4.056624,-0.119082 z"
     id="path243"
     sodipodi:nodetypes="cccccccccccccccccccccccccccccccccccccccccccccc" /></svg>
