<?xml version="1.0" encoding="UTF-8" standalone="no"?>
<svg
   version="1.1"
   x="0px"
   y="0px"
   viewBox="0 0 52.264809 52.264809"
   enable-background="new 0 0 100 100"
   xml:space="preserve"
   id="svg608"
   sodipodi:docname="python.svg"
   inkscape:version="1.2.2 (732a01da63, 2022-12-09)"
   width="52.264809"
   height="52.264809"
   xmlns:inkscape="http://www.inkscape.org/namespaces/inkscape"
   xmlns:sodipodi="http://sodipodi.sourceforge.net/DTD/sodipodi-0.dtd"
   xmlns="http://www.w3.org/2000/svg"
   xmlns:svg="http://www.w3.org/2000/svg"><defs
     id="defs612" /><sodipodi:namedview
     id="namedview610"
     pagecolor="#ffffff"
     bordercolor="#666666"
     borderopacity="1.0"
     inkscape:pageshadow="2"
     inkscape:pageopacity="0.0"
     inkscape:pagecheckerboard="0"
     showgrid="false"
     inkscape:current-layer="svg608"
     fit-margin-top="0"
     fit-margin-left="0"
     fit-margin-right="0"
     fit-margin-bottom="0"
     inkscape:showpageshadow="2"
     inkscape:deskcolor="#d1d1d1" /><path
     d="m 26.132404,0.63697094 c -14.035572,0 -25.45470823,11.41913606 -25.45470823,25.45470806 0,14.148497 11.59870723,25.454706 25.45470823,25.454706 6.401627,0 12.242942,-2.393667 16.720501,-6.309682 3.805556,0.474538 3.650052,6.391137 6.041868,6.391137 0.622638,0 1.131732,-0.35544 1.372395,-0.810848 0.579441,-1.097174 0.476388,-5.946219 -0.639917,-8.60153 -0.537479,-1.279216 -1.24404,-2.141281 -1.890744,-2.728128 2.425139,-3.896884 3.850603,-8.477498 3.850603,-13.395039 0,-14.036188 -11.419135,-25.45532406 -25.454706,-25.45532406 z M 19.213042,4.5023849 c 0.656577,1.4304 0.987952,3.314974 0.03085,5.019358 -3.213773,-0.646085 -4.690454,1.9037051 -5.570415,3.4377751 -0.335078,0.583144 -0.681262,1.186653 -0.989803,1.450764 -0.419618,0.35976 -1.06015,0.623872 -1.738325,0.904027 -1.3859712,0.57142 -3.1094862,1.283535 -3.8030872,3.264375 -0.616468,1.762391 -0.169699,2.977428 0.224001,4.049303 0.254239,0.688665 0.515264,1.401397 0.594868,2.430076 0.08207,1.071875 -0.183273,2.21348 -0.491815,3.53589 -0.415914,1.782756 -0.931797,4.000554 -0.736799,6.831735 0.08146,1.186035 0.2962,2.296785 0.60536,3.344594 -2.450441,-3.621664 -3.883309,-7.985681 -3.883309,-12.678603 0,-10.09179 6.6287152,-18.6562951 15.7584692,-21.5892941 z m 3.469863,14.0719791 c -0.135756,-0.365932 -0.432576,-1.06015 -0.390614,-1.414357 1.211335,-0.522669 2.502274,-0.787398 3.840113,-0.787398 0.881811,0 1.720428,0.156122 2.532511,0.377037 -1.642677,4.77808 -2.761449,10.36022 4.534949,15.404264 -1.208867,1.256383 -2.726894,2.260377 -4.349824,2.919423 -4.457196,-1.200228 -6.397307,-3.901204 -7.981362,-8.513288 1.166905,-0.727542 2.241248,-1.726601 2.657163,-3.392727 0.347419,-1.385353 -0.284475,-3.089738 -0.842936,-4.592954 z m 12.165807,11.35681 C 29.469592,26.288528 29.62448,22.73968 31.2326,17.85546 c 2.761451,1.71611 4.618873,4.752781 4.618873,8.236219 0,1.371776 -0.37025,2.666418 -1.002761,3.839495 z M 18.370723,27.871348 c 1.09409,3.097761 2.618287,6.033845 5.57782,8.0369 -2.710231,-0.20549 -5.476001,-1.579736 -6.77126,-3.440242 -0.721371,-1.036085 -0.89107,-2.09068 -0.505392,-3.134787 0.224618,-0.606593 0.87811,-1.0367 1.698832,-1.461871 z m 29.188681,17.15925 c -0.555993,-0.666452 -1.435954,-1.43287 -2.514,-1.962944 0.367782,-0.409743 0.727542,-0.824424 1.06879,-1.257617 0.853426,0.915753 1.21257,1.971583 1.44521,3.220561 z m -21.427,3.73891 c -7.841902,0 -16.073183,-5.477235 -16.6297932,-13.535733 -0.166612,-2.415265 0.259176,-4.243068 0.6713882,-6.010396 0.344333,-1.481619 0.67077,-2.880548 0.555992,-4.378827 -0.108607,-1.413739 -0.468366,-2.3912 -0.7577782,-3.175513 -0.340631,-0.928094 -0.49737,-1.35203 -0.208575,-2.174604 0.2684322,-0.766417 1.0262112,-1.112601 2.2406312,-1.614291 0.810848,-0.334459 1.72907,-0.713349 2.485614,-1.361286 0.671388,-0.576973 1.139137,-1.390291 1.590842,-2.177689 1.06015,-1.847549 1.540241,-2.345536 2.675675,-2.096235 0.663365,0.146243 1.121859,0.375187 1.289088,0.645471 0.29003,0.468983 0.03517,1.484087 -0.188827,2.380708 -0.244982,0.972525 -0.49737,1.978989 -0.244982,2.902763 0.101199,0.370867 0.273985,0.844171 0.467132,1.365606 0.311627,0.838617 0.891069,2.401074 0.752843,2.953981 -0.287562,1.149627 -1.289706,1.70994 -2.907083,2.496721 -1.489639,0.723839 -3.179216,1.545795 -3.856773,3.37915 -0.700391,1.890745 -0.406041,3.910461 0.828743,5.684576 1.915428,2.750961 5.919685,4.672559 9.736965,4.672559 1.435337,0 2.904615,-0.268432 4.330077,-0.742352 0.0611,0.01357 0.115391,0.03148 0.177104,0.04443 l 0.02344,-0.111687 c 5.052065,-1.755603 9.464214,-6.238717 9.464214,-11.825176 0,-6.890976 -5.604971,-12.495947 -12.495946,-12.495947 -1.095325,0 -2.166581,0.138224 -3.204517,0.412828 0.07837,-0.86515 -0.01174,-1.758071 -0.520819,-2.580027 -0.212276,-0.343099 -0.504156,-0.631894 -0.834297,-0.893536 1.292791,-2.7707071 2.524491,-3.4186461 5.58646,-4.3547611 -2.444268,-0.36408 -3.917864,-0.76827 -6.110981,2.423288 0.735564,-1.620462 0.310393,-3.201431 -0.783079,-4.39302 1.8747,-0.50354 3.835176,-0.797273 5.867233,-0.797273 12.505202,0 22.677829,10.1726281 22.677829,22.6778311 0,12.505203 -10.172627,22.678446 -22.677829,22.678446 z"
     id="path602"
     style="stroke-width:1;fill:#ffc107" /></svg>
