<?xml version="1.0" encoding="UTF-8" standalone="no"?>
<svg
   viewBox="0 0 52.264809 52.264809"
   version="1.1"
   x="0px"
   y="0px"
   id="svg489"
   sodipodi:docname="social.svg"
   width="52.264809"
   height="52.264809"
   inkscape:version="1.2.2 (732a01da63, 2022-12-09)"
   xmlns:inkscape="http://www.inkscape.org/namespaces/inkscape"
   xmlns:sodipodi="http://sodipodi.sourceforge.net/DTD/sodipodi-0.dtd"
   xmlns="http://www.w3.org/2000/svg"
   xmlns:svg="http://www.w3.org/2000/svg"
   xmlns:rdf="http://www.w3.org/1999/02/22-rdf-syntax-ns#"
   xmlns:cc="http://creativecommons.org/ns#"
   xmlns:dc="http://purl.org/dc/elements/1.1/">
  <defs
     id="defs493" />
  <sodipodi:namedview
     id="namedview491"
     pagecolor="#ffffff"
     bordercolor="#666666"
     borderopacity="1.0"
     inkscape:pageshadow="2"
     inkscape:pageopacity="0.0"
     inkscape:pagecheckerboard="0"
     showgrid="false"
     fit-margin-top="0"
     fit-margin-left="0"
     fit-margin-right="0"
     fit-margin-bottom="0"
     inkscape:current-layer="svg489"
     inkscape:showpageshadow="2"
     inkscape:deskcolor="#d1d1d1" />
  <title
     id="title475">2/icons/social-24-black</title>
  <desc
     id="desc477">Created with Sketch.</desc>
  <rect
     style="fill:#ffffff;fill-rule:evenodd;stroke:none;stroke-width:1"
     id="rect230"
     width="52.264809"
     height="52.264809"
     x="0"
     y="0" />
  <g
     stroke="none"
     stroke-width="0.393003"
     fill="none"
     fill-rule="evenodd"
     id="g483"
     transform="matrix(2.5445119,0,0,2.5445119,-4.4017387,-4.4017388)"
     style="fill:#3485fd">
    <g
       fill-rule="nonzero"
       fill="#000000"
       id="g481"
       style="stroke-width:0.161683;fill:#3485fd">
      <path
         d="M 6.7054239,17.937995 C 6.4764317,17.97874 6.2406986,18 6,18 3.790861,18 2,16.209139 2,14 2,11.935305 3.5643266,10.235979 5.5724151,10.022585 6.5204658,7.6597108 8.5633464,5.854125 11.073359,5.2335258 11.430912,3.3910562 13.053007,2 15,2 17.209139,2 19,3.790861 19,6 19,6.5022899 18.90742,6.9829562 18.738389,7.4258653 20.138115,8.8665762 21,10.832636 21,13 21,13.717608 20.90552,14.413148 20.728308,15.074858 21.510777,15.80499 22,16.845363 22,18 c 0,2.209139 -1.790861,4 -4,4 -1.154637,0 -2.19501,-0.489223 -2.925142,-1.271692 C 14.413148,20.905515 13.717608,21 13,21 10.44518,21 8.1700714,19.802415 6.7054239,17.937995 Z m 1.874192,-0.880827 C 9.6763331,18.251436 11.250748,19 13,19 13.376245,19 13.7444,18.96537 14.101454,18.899121 14.035072,18.610113 14,18.309152 14,18 c 0,-2.209139 1.790861,-4 4,-4 0.309152,0 0.610113,0.03507 0.899121,0.101454 C 18.965369,13.7444 19,13.376245 19,13 19,11.503835 18.452375,10.135576 17.546632,9.0847274 16.854868,9.6564702 15.967552,10 15,10 13.235757,10 11.738284,8.8578257 11.206688,7.2725852 9.6344029,7.7643782 8.3403182,8.8857447 7.6196395,10.341479 9.0218654,10.963168 10,12.367356 10,14 10,15.226139 9.4483097,16.323424 8.5796159,17.057168 Z M 15,8 c 1.10457,0 2,-0.8954305 2,-2 0,-1.1045695 -0.89543,-2 -2,-2 -1.10457,0 -2,0.8954305 -2,2 0,1.1045695 0.89543,2 2,2 z m 3,12 c 1.10457,0 2,-0.89543 2,-2 0,-1.10457 -0.89543,-2 -2,-2 -1.10457,0 -2,0.89543 -2,2 0,1.10457 0.89543,2 2,2 z M 6,16 c 1.1045695,0 2,-0.89543 2,-2 0,-1.10457 -0.8954305,-2 -2,-2 -1.1045695,0 -2,0.89543 -2,2 0,1.10457 0.8954305,2 2,2 z"
         id="path479"
         style="stroke-width:0.393003;fill:#3485fd" />
    </g>
  </g>
  <metadata
     id="metadata624">
    <rdf:RDF>
      <cc:Work
         rdf:about="">
        <dc:title>2/icons/social-24-black</dc:title>
      </cc:Work>
    </rdf:RDF>
  </metadata>
</svg>
