<?xml version="1.0" encoding="UTF-8" standalone="no"?>
<svg
   xml:space="preserve"
   version="1.0"
   style="image-rendering:optimizeQuality;shape-rendering:geometricPrecision;text-rendering:geometricPrecision"
   viewBox="0 0 52.264809 52.264809"
   x="0px"
   y="0px"
   fill-rule="evenodd"
   clip-rule="evenodd"
   id="svg672"
   sodipodi:docname="telegram.svg"
   width="52.264809"
   height="52.264809"
   inkscape:version="1.2.2 (732a01da63, 2022-12-09)"
   xmlns:inkscape="http://www.inkscape.org/namespaces/inkscape"
   xmlns:sodipodi="http://sodipodi.sourceforge.net/DTD/sodipodi-0.dtd"
   xmlns="http://www.w3.org/2000/svg"
   xmlns:svg="http://www.w3.org/2000/svg"><sodipodi:namedview
     id="namedview674"
     pagecolor="#ffffff"
     bordercolor="#666666"
     borderopacity="1.0"
     inkscape:pageshadow="2"
     inkscape:pageopacity="0.0"
     inkscape:pagecheckerboard="0"
     showgrid="false"
     fit-margin-top="0"
     fit-margin-left="0"
     fit-margin-right="0"
     fit-margin-bottom="0"
     inkscape:current-layer="svg672"
     inkscape:showpageshadow="2"
     inkscape:deskcolor="#d1d1d1" /><defs
     id="defs662"><style
       type="text/css"
       id="style656">
   
    .fil0 {fill:black}
   
  </style><clipPath
       id="clipPath660"><rect
         x="6233"
         y="-2779"
         width="7583"
         height="5058"
         id="rect658" /></clipPath></defs><rect
     style="fill:#ffffff;fill-rule:evenodd;stroke:none;stroke-width:1"
     id="rect230"
     width="52.264809"
     height="52.264809"
     x="0"
     y="0" /><g
     id="g666"
     transform="matrix(0.56739526,0,0,0.56739526,-2.2373591,-2.2373586)"
     style="stroke-width:1.76244;fill:#13889b"><path
       class="fil0"
       d="M 39,54 C 30,50 26,48 26,48 58,36 74,29 74,29 68,57 65,71 65,71 52,61 46,57 46,57 59,44 65,38 65,38 48,49 39,54 39,54 Z M 27,5 H 73 C 85,5 95,15 95,27 V 73 C 95,85 85,95 73,95 H 27 C 15,95 5,85 5,73 V 27 C 5,15 15,5 27,5 Z m 3,5 h 40 c 11,0 20,9 20,20 V 70 C 90,81 81,90 70,90 H 30 C 19,90 10,81 10,70 V 30 C 10,19 19,10 30,10 Z"
       id="path664"
       style="stroke-width:1.76244;fill:#13889b" /></g></svg>
