<?xml version="1.0" encoding="UTF-8" standalone="no"?>
<svg
   fill="#000000"
   viewBox="0 0 52.264809 52.264809"
   width="52.264809"
   height="52.264809"
   version="1.1"
   id="svg1001"
   sodipodi:docname="vscode.svg"
   inkscape:version="1.2.2 (732a01da63, 2022-12-09)"
   xmlns:inkscape="http://www.inkscape.org/namespaces/inkscape"
   xmlns:sodipodi="http://sodipodi.sourceforge.net/DTD/sodipodi-0.dtd"
   xmlns="http://www.w3.org/2000/svg"
   xmlns:svg="http://www.w3.org/2000/svg">
  <defs
     id="defs1005" />
  <sodipodi:namedview
     id="namedview1003"
     pagecolor="#ffffff"
     bordercolor="#666666"
     borderopacity="1.0"
     inkscape:pageshadow="2"
     inkscape:pageopacity="0.0"
     inkscape:pagecheckerboard="0"
     showgrid="false"
     inkscape:current-layer="svg1001"
     fit-margin-top="0"
     fit-margin-left="0"
     fit-margin-right="0"
     fit-margin-bottom="0"
     inkscape:showpageshadow="2"
     inkscape:deskcolor="#d1d1d1" />
  <rect
     style="fill:#ffffff;fill-rule:evenodd;stroke:none;stroke-width:1"
     id="rect230"
     width="52.264809"
     height="52.264809"
     x="0"
     y="0" />
  <path
     d="m 36.711365,0.88322364 c -0.6542,0 -1.25793,0.26854496 -1.70606,0.75920196 L 17.684075,17.476777 c -0.29996,0.272098 -0.32367,0.737129 -0.0516,1.037096 0.14448,0.159885 0.34484,0.240653 0.54433,0.240653 0.17602,0 0.35195,-0.06364 0.49276,-0.190516 L 36.022315,2.7010086 c 0.019,-0.0176 0.0376,-0.03679 0.0544,-0.05586 0.21563,-0.244962 0.46442,-0.296518 0.63458,-0.296518 0.43124,0 0.87666,0.324604 0.87666,0.868067 V 14.706415 l -11.23761,8.495887 0.004,0.0044 -0.6174,0.466981 c -0.3227,0.244227 -0.38603,0.703632 -0.1418,1.02707 0.14448,0.190688 0.36364,0.290787 0.58587,0.290787 0.15401,0 0.30988,-0.0485 0.44262,-0.148975 l 10.96541,-8.296807 0.003,19.173403 L 8.0333548,13.378602 c -1.096463,-0.803092 -2.685808,-0.77293 -3.849006,0.0573 -0.60947,0.435649 -2.119173,1.835685 -2.247521,1.958165 -0.726816,0.582333 -1.16239602,1.450034 -1.19466702,2.380739 -0.03301,0.93144 0.34059202,1.825853 1.02706902,2.459524 L 35.005035,50.620987 c 0.44812,0.490655 1.05258,0.760633 1.70605,0.760633 0.47966,0 0.96028,-0.159564 1.36514,-0.441196 l 10.4655,-4.808754 c 1.78368,-0.615336 2.98237,-2.286735 2.98237,-4.158414 V 10.290153 c 0,-1.8716794 -1.19811,-3.5429994 -2.91504,-4.1311994 l -10.53212,-4.835966 c -0.40411,-0.281632 -0.88548,-0.43976396 -1.36514,-0.43976396 z m 2.34493,2.50249896 9.00727,4.132631 c 1.19254,0.411446 1.99398,1.525725 1.99398,2.7717994 V 41.97318 c 0,1.246075 -0.80059,2.360467 -2.05987,2.797584 l -8.94138,4.106846 V 37.191647 l -0.003,-22.111367 c -2e-5,-0.003 0.003,-0.0057 0.003,-0.0086 z m 8.43429,6.277015 c -0.20242,0 -0.36671,0.164285 -0.36671,0.3667084 v 18.335417 c 0,0.202423 0.16429,0.366708 0.36671,0.366708 0.20242,0 0.36671,-0.164285 0.36671,-0.366708 V 10.029446 c 0,-0.2024234 -0.16429,-0.3667084 -0.36671,-0.3667084 z M 6.1914928,14.24516 c 0.354974,0 0.693343,0.108449 0.96691,0.30941 L 37.589455,37.556923 V 49.04664 c 0,0.542729 -0.4454,0.868068 -0.87665,0.868067 -0.17015,0 -0.41896,-0.05156 -0.63458,-0.296517 -0.0176,-0.01981 -0.0361,-0.03752 -0.0558,-0.05587 L 2.7621978,19.15418 c -0.369643,-0.341038 -0.571228,-0.82476 -0.554361,-1.327885 0.0176,-0.503856 0.253396,-0.971581 0.687578,-1.322155 0.442984,-0.412913 1.690468,-1.553112 2.14152,-1.875083 0.347639,-0.248628 0.75778,-0.383897 1.154558,-0.383897 z m 0.858035,13.26023 c -0.187474,-0.0084 -0.378953,0.05624 -0.52857,0.193382 l -0.790714,0.721957 -0.0072,-0.0057 -3.955007,3.615515 c -0.684278,0.630739 -1.05864102,1.527386 -1.02563702,2.458091 0.03227,0.931439 0.46808002,1.799232 1.15455702,2.346361 0.169419,0.158418 1.679594,1.557593 2.289063,1.993976 0.594801,0.423181 1.305756,0.656064 2.005436,0.656064 0.66961,0 1.30654,-0.205517 1.850733,-0.604495 l 5.9332162,-4.474988 c 0.32271,-0.244227 0.38605,-0.704366 0.14181,-1.027069 -0.24569,-0.32417 -0.70436,-0.388207 -1.02706,-0.143246 l -5.9232012,4.466393 c -0.597731,0.43785 -1.470749,0.402061 -2.128624,-0.06733 -0.45105,-0.32197 -1.699704,-1.46351 -2.184492,-1.910895 -0.393112,-0.315368 -0.627703,-0.783918 -0.646038,-1.287775 -0.01687,-0.503124 0.184053,-0.986183 0.551496,-1.325021 l 4.751445,-4.33031 c 0.298504,-0.272831 0.321577,-0.737163 0.04733,-1.035665 -0.136781,-0.15035 -0.321042,-0.230785 -0.508517,-0.239219 z m 40.4410572,2.693015 c -0.20242,0 -0.36671,0.164285 -0.36671,0.366708 v 2.933667 c 0,0.202422 0.16429,0.366708 0.36671,0.366708 0.20242,0 0.36671,-0.164286 0.36671,-0.366708 v -2.933667 c 0,-0.202423 -0.16429,-0.366708 -0.36671,-0.366708 z m 0,4.4005 c -0.20242,0 -0.36671,0.164285 -0.36671,0.366709 v 0.733415 c 0,0.202423 0.16429,0.36671 0.36671,0.36671 0.20242,0 0.36671,-0.164287 0.36671,-0.36671 v -0.733415 c 0,-0.202424 -0.16429,-0.366709 -0.36671,-0.366709 z m 0,2.933666 c -0.20242,0 -0.36671,0.164286 -0.36671,0.366708 v 4.217147 c 0,0.202423 0.16429,0.366708 0.36671,0.366708 0.20242,0 0.36671,-0.164285 0.36671,-0.366708 v -4.217147 c 0,-0.202422 -0.16429,-0.366708 -0.36671,-0.366708 z"
     id="path999"
     style="stroke-width:0.999999;fill:#3485fd" />
</svg>
