<?xml version="1.0" encoding="UTF-8" standalone="no"?>
<svg
   data-name="Layer 1"
   viewBox="0 0 52.264809 52.264809"
   x="0px"
   y="0px"
   version="1.1"
   id="svg137"
   sodipodi:docname="web.svg"
   inkscape:version="1.2.2 (732a01da63, 2022-12-09)"
   width="52.264809"
   height="52.264809"
   xmlns:inkscape="http://www.inkscape.org/namespaces/inkscape"
   xmlns:sodipodi="http://sodipodi.sourceforge.net/DTD/sodipodi-0.dtd"
   xmlns="http://www.w3.org/2000/svg"
   xmlns:svg="http://www.w3.org/2000/svg"
   xmlns:rdf="http://www.w3.org/1999/02/22-rdf-syntax-ns#"
   xmlns:cc="http://creativecommons.org/ns#"
   xmlns:dc="http://purl.org/dc/elements/1.1/">
  <defs
     id="defs141" />
  <sodipodi:namedview
     id="namedview139"
     pagecolor="#ffffff"
     bordercolor="#666666"
     borderopacity="1.0"
     inkscape:pageshadow="2"
     inkscape:pageopacity="0.0"
     inkscape:pagecheckerboard="0"
     showgrid="false"
     inkscape:current-layer="svg137"
     fit-margin-top="0"
     fit-margin-left="0"
     fit-margin-right="0"
     fit-margin-bottom="0"
     inkscape:showpageshadow="2"
     inkscape:deskcolor="#d1d1d1" />
  <title
     id="title129">My grid</title>
  <path
     d="M 26.132404,0.69092887 A 25.441475,25.441475 0 1 0 51.573879,26.132404 25.473106,25.473106 0 0 0 26.132404,0.69092887 Z M 3.9383283,27.713929 h 6.9481687 a 29.057897,29.057897 0 0 0 1.760765,8.761652 H 6.4160518 A 22.141358,22.141358 0 0 1 3.9383283,27.713929 Z M 27.713929,12.626175 V 5.1824614 a 26.99137,26.99137 0 0 1 6.853278,7.4437136 z m 8.434804,3.163051 a 25.494193,25.494193 0 0 1 2.034896,8.761652 H 27.640125 v -8.761652 h 8.434803 z M 24.550878,5.1613744 v 7.4648006 h -6.853277 a 26.35876,26.35876 0 0 1 6.853277,-7.4648006 z m 0,10.6278516 v 8.761652 H 14.007374 A 25.705063,25.705063 0 0 1 16.01064,15.789226 Z M 10.844323,24.550878 H 3.9383283 a 22.141358,22.141358 0 0 1 2.488267,-8.761652 h 6.2312107 a 29.068441,29.068441 0 0 0 -1.771309,8.761652 z m 3.163051,3.163051 h 10.543504 v 8.761652 h -8.487521 a 25.705063,25.705063 0 0 1 -2.013809,-8.761652 z m 10.543504,11.924703 v 7.464801 a 26.35876,26.35876 0 0 1 -6.853277,-7.464801 z m 3.163051,7.464801 v -7.464801 h 6.853278 a 26.35876,26.35876 0 0 1 -6.853278,7.464801 z m 0,-10.627852 v -8.761652 h 10.543504 a 25.705063,25.705063 0 0 1 -2.003265,8.761652 z m 13.706556,-8.761652 h 6.948169 a 22.141358,22.141358 0 0 1 -2.488267,8.761652 h -6.262842 a 29.057897,29.057897 0 0 0 1.760765,-8.761652 z m 0,-3.163051 a 29.068441,29.068441 0 0 0 -1.760766,-8.761652 h 6.189037 a 22.141358,22.141358 0 0 1 2.488267,8.761652 H 41.37831 Z M 43.84549,12.626175 H 38.257433 A 29.089528,29.089528 0 0 0 32.142201,4.6974602 22.310054,22.310054 0 0 1 43.803316,12.626175 Z M 20.16478,4.6974602 A 29.089528,29.089528 0 0 0 14.049548,12.626175 H 8.4614915 A 22.310054,22.310054 0 0 1 20.16478,4.6974602 Z M 8.4614915,39.638632 H 14.049548 A 29.089528,29.089528 0 0 0 20.16478,47.567347 22.310054,22.310054 0 0 1 8.4614915,39.638632 Z M 32.11057,47.567347 a 29.089528,29.089528 0 0 0 6.115233,-7.928715 h 5.588057 a 22.310054,22.310054 0 0 1 -11.713833,7.928715 z"
     id="path131"
     style="stroke-width:1;fill:#0d6efd" />
  <metadata
     id="metadata256">
    <rdf:RDF>
      <cc:Work
         rdf:about="">
        <dc:title>My grid</dc:title>
      </cc:Work>
    </rdf:RDF>
  </metadata>
</svg>
